<?xml version="1.0" encoding="utf-8"?>
<!-- Generator: Adobe Illustrator 23.0.5, SVG Export Plug-In . SVG Version: 6.00 Build 0)  -->
<svg version="1.1" id="Layer_1" xmlns="http://www.w3.org/2000/svg" xmlns:xlink="http://www.w3.org/1999/xlink" x="0px" y="0px"
	 viewBox="0 0 960 960" style="enable-background:new 0 0 960 960;" xml:space="preserve" >
<g>
	<g fill="#009FFD">
		<path d="M199.2,663.9c64-173,128-346,192-519c24.5,0,48.9,0,73.4,0c-24,173-48,346-71.9,519C328.2,663.9,263.7,663.9,199.2,663.9z
			 M363.3,444c5.6-23.9,11.3-47.8,16.9-71.7c91.5,0,183.1,0,274.6,0c6.4,23.9,12.8,47.8,19.3,71.7C570.5,444,466.9,444,363.3,444z
			 M624.5,663.9c-24-173-48-346-71.9-519c24.5,0,48.9,0,73.4,0c64,173,128,346,192,519C753.5,663.9,689,663.9,624.5,663.9z"/>
	</g>
</g>
</svg>
